HIERARCHY
ROOT Hips
{
	OFFSET 0.000000 0.000000 0.000000
	CHANNELS 6 Xposition Yposition Zposition Xrotation Yrotation Zrotation
	JOINT LeftUpLeg_virtual
	{
		OFFSET 0.000000 0.000000 0.000000
		CHANNELS 3 Xrotation Yrotation Zrotation
		JOINT LeftUpLeg
		{
			OFFSET 11.394100 -6.187798 -0.413800
			CHANNELS 3 Xrotation Yrotation Zrotation
			JOINT LeftLeg
			{
				OFFSET 0.430247 -32.302673 3.732800
				CHANNELS 3 Xrotation Yrotation Zrotation
				JOINT LeftFoot
				{
					OFFSET -0.430247 -48.264931 -6.423300
					CHANNELS 3 Xrotation Yrotation Zrotation
					JOINT LeftToeBase
					{
						OFFSET 4.230900 -16.068199 23.438400
						CHANNELS 3 Xrotation Yrotation Zrotation
						JOINT LeftToe_End
						{
							OFFSET 4.510700 0.695400 19.974600
							CHANNELS 3 Xrotation Yrotation Zrotation
							End Site
							{
								OFFSET 0 0 0
							}
						}
					}
				}
			}
		}
	}
	JOINT RightUpLeg_virtual
	{
		OFFSET 0.000000 0.000000 0.000000
		CHANNELS 3 Xrotation Yrotation Zrotation
		JOINT RightUpLeg
		{
			OFFSET -11.333700 -6.187798 -0.413800
			CHANNELS 3 Xrotation Yrotation Zrotation
			JOINT RightLeg
			{
				OFFSET -0.430392 -32.302628 3.733000
				CHANNELS 3 Xrotation Yrotation Zrotation
				JOINT RightFoot
				{
					OFFSET 0.430392 -48.264973 -6.423500
					CHANNELS 3 Xrotation Yrotation Zrotation
					JOINT RightToeBase
					{
						OFFSET -4.230900 -16.068199 23.438400
						CHANNELS 3 Xrotation Yrotation Zrotation
						JOINT RightToe_End
						{
							OFFSET -4.510700 0.695400 19.974600
							CHANNELS 3 Xrotation Yrotation Zrotation
							End Site
							{
								OFFSET 0 0 0
							}
						}
					}
				}
			}
		}
	}
	JOINT Spine_virtual
	{
		OFFSET 0.000000 0.000000 0.000000
		CHANNELS 3 Xrotation Yrotation Zrotation
		JOINT Spine
		{
			OFFSET -0.002400 12.777504 0.315300
			CHANNELS 3 Xrotation Yrotation Zrotation
			JOINT Spine1
			{
				OFFSET -0.002067 5.816869 0.032633
				CHANNELS 3 Xrotation Yrotation Zrotation
				JOINT Spine1_split
				{
					OFFSET -0.002067 5.816869 0.032633
					CHANNELS 3 Xrotation Yrotation Zrotation
					JOINT Spine2
					{
						OFFSET -0.002067 5.816869 0.032633
						CHANNELS 3 Xrotation Yrotation Zrotation
						JOINT Neck_virtual
						{
							OFFSET 0.000000 0.000000 0.000000
							CHANNELS 3 Xrotation Yrotation Zrotation
							JOINT Neck
							{
								OFFSET -0.003700 21.199493 -0.826900
								CHANNELS 3 Xrotation Yrotation Zrotation
								JOINT Head
								{
									OFFSET 0.000000 20.442200 4.834800
									CHANNELS 3 Xrotation Yrotation Zrotation
									JOINT HeadTop_End
									{
										OFFSET 0.000000 34.668396 4.968400
										CHANNELS 3 Xrotation Yrotation Zrotation
										End Site
										{
											OFFSET 0 0 0
										}
									}
								}
							}
						}
						JOINT LeftShoulder_virtual
						{
							OFFSET 0.000000 0.000000 0.000000
							CHANNELS 3 Xrotation Yrotation Zrotation
							JOINT LeftShoulder
							{
								OFFSET 3.288150 8.794197 -1.372250
								CHANNELS 3 Xrotation Yrotation Zrotation
								JOINT LeftShoulder_split
								{
									OFFSET 3.288150 8.794197 -1.372250
									CHANNELS 3 Xrotation Yrotation Zrotation
									JOINT LeftArm
									{
										OFFSET 11.953299 -2.279007 -0.146200
										CHANNELS 3 Xrotation Yrotation Zrotation
										JOINT LeftForeArm
										{
											OFFSET 18.448900 0.000000 0.000000
											CHANNELS 3 Xrotation Yrotation Zrotation
											JOINT LeftHand
											{
												OFFSET 29.527798 0.000000 0.000000
												CHANNELS 3 Xrotation Yrotation Zrotation
												End Site
												{
													OFFSET 0 0 0
												}
											}
										}
									}
								}
							}
						}
						JOINT RightShoulder_virtual
						{
							OFFSET 0.000000 0.000000 0.000000
							CHANNELS 3 Xrotation Yrotation Zrotation
							JOINT RightShoulder
							{
								OFFSET -3.249400 8.794197 -1.372250
								CHANNELS 3 Xrotation Yrotation Zrotation
								JOINT RightShoulder_split
								{
									OFFSET -3.249400 8.794197 -1.372250
									CHANNELS 3 Xrotation Yrotation Zrotation
									JOINT RightArm
									{
										OFFSET -11.953299 -2.279007 -0.146200
										CHANNELS 3 Xrotation Yrotation Zrotation
										JOINT RightForeArm
										{
											OFFSET -18.448900 0.000000 0.000000
											CHANNELS 3 Xrotation Yrotation Zrotation
											JOINT RightHand
											{
												OFFSET -29.527802 0.000000 0.000000
												CHANNELS 3 Xrotation Yrotation Zrotation
												End Site
												{
													OFFSET 0 0 0
												}
											}
										}
									}
								}
							}
						}
					}
				}
			}
		}
	}
}
MOTION
Frames: 8
Frame Time: 0.03333333
11.696589 90.003342 -22.099827 0.000000 0.000000 0.000000 15.182954 19.818501 -0.937309 -13.013513 22.929560 21.338841 38.529917 -7.491764 -1.036711 -6.358164 -6.839753 -8.684058 5.721150 -6.185733 6.215568 0.000000 0.000000 0.000000 11.972995 16.182142 -0.071261 -58.169074 7.284318 -1.267984 55.831011 -1.338604 -1.756729 -0.269083 -2.146135 29.653253 13.430785 -0.016830 -19.661051 0.000000 0.000000 0.000000 17.248792 22.170801 -1.405731 -12.940105 -6.288916 -1.678968 3.686142 -6.755422 3.529077 0.076266 -0.405004 0.040824 0.000000 0.000000 0.000000 1.726531 -3.860136 4.024879 23.564660 10.244090 4.616190 15.384096 42.368859 -14.176476 0.000000 0.000000 0.000000 3.615029 -4.737882 3.568646 4.934862 -10.089986 -6.036530 8.677075 -7.673337 5.286783 -34.644840 3.243527 -15.138872 -179.850765 -67.442415 177.569728 0.000000 0.000000 0.000000 3.635550 -5.556381 3.472064 -0.005436 -7.543642 25.779166 3.019332 6.461363 -7.893781 -39.273420 -1.519900 17.555912 -162.600822 51.059745 178.678691 0.000000 0.000000 0.000000 
12.291754 91.738083 -23.833103 0.000000 0.000000 0.000000 16.648854 21.380307 -3.135846 -28.802460 15.007198 27.027106 54.810410 -5.606413 -1.002056 7.370176 -6.604020 -4.804513 10.666401 -5.946978 -4.030583 0.000000 0.000000 0.000000 13.840405 18.024627 -1.786532 -52.094133 5.727015 -1.040744 50.394840 0.516776 -2.919261 -3.753616 -0.983138 27.178204 8.031650 2.694744 -19.614403 0.000000 0.000000 0.000000 17.743329 21.440104 -1.930773 -8.974917 -6.102380 -0.441595 3.007480 -6.915786 1.816346 0.073371 -0.126856 0.027486 0.000000 0.000000 0.000000 1.094054 -4.055969 2.504205 24.727872 10.167449 6.632940 9.946328 43.534372 -9.384996 0.000000 0.000000 0.000000 2.832540 -5.114349 2.365356 6.177431 -12.069853 2.144960 7.461941 -6.026202 3.747326 -45.687672 0.062940 -5.409451 -169.815469 -70.789788 -174.757179 0.000000 0.000000 0.000000 2.483385 -5.542782 2.285401 -1.495628 -6.361975 17.804777 2.311613 3.543462 -5.273384 -51.897905 4.500649 12.451768 -155.977970 56.516557 171.143422 0.000000 0.000000 0.000000 
12.543327 93.009895 -24.996265 0.000000 0.000000 0.000000 17.623017 21.560763 -4.288323 -42.827243 7.486405 28.778493 68.378724 -2.462285 -0.917716 18.755023 -4.628576 -1.332821 8.918010 -5.563756 -14.502307 0.000000 0.000000 0.000000 15.274989 20.174579 -3.115068 -44.294057 1.931520 -1.322717 46.053725 0.148700 -2.984762 -10.689284 -1.727361 21.345205 1.117925 5.460933 -19.360895 0.000000 0.000000 0.000000 18.045025 20.475474 -2.094344 -4.811174 -5.718895 0.451455 2.435860 -7.183562 -0.093778 0.027586 0.107217 0.059736 0.000000 0.000000 0.000000 0.760684 -4.332815 0.853138 26.018252 10.329784 7.915360 4.580528 44.914095 -5.187154 0.000000 0.000000 0.000000 2.165810 -5.703010 0.719211 7.457248 -12.155052 9.313325 6.450137 -4.531115 4.106597 -53.278119 -4.064527 4.388818 -154.554887 -76.649366 -161.709469 0.000000 0.000000 0.000000 1.478495 -5.639670 0.919258 -3.026112 -4.787768 8.528477 3.482752 1.205727 -2.901169 -60.072730 9.325551 7.653711 -142.587671 64.930333 156.189337 0.000000 0.000000 0.000000 
12.575876 94.073654 -25.906673 0.000000 0.000000 0.000000 17.775431 21.029352 -3.958314 -52.829645 4.189951 26.971367 75.853041 0.957587 -0.729143 23.943529 -2.736848 1.099989 1.225908 -3.712268 -21.931322 0.000000 0.000000 0.000000 15.203366 20.668765 -2.963602 -39.714760 -2.675828 -2.656695 45.021007 -0.805684 -2.351237 -14.781322 -2.395236 15.842538 -0.905375 7.188377 -17.625377 0.000000 0.000000 0.000000 18.091295 19.045938 -1.781393 -1.282967 -5.317739 0.501986 1.990593 -7.427256 -1.661604 -0.036565 0.198107 0.027932 0.000000 0.000000 0.000000 0.685098 -4.513809 -0.499400 27.132790 10.620348 8.203655 -0.596284 46.165184 -1.855405 0.000000 0.000000 0.000000 1.635968 -6.261030 -0.947799 8.212641 -10.836461 13.614041 5.548562 -4.316229 5.028905 -56.458002 -6.329725 12.012056 -125.752307 -81.960535 -134.511614 0.000000 0.000000 0.000000 0.799955 -5.719299 -0.245493 -4.240645 -3.455451 -0.267592 6.087928 0.567528 -0.561203 -62.795284 11.524377 4.818395 -116.703262 71.801954 128.265461 0.000000 0.000000 0.000000 
12.274544 94.957306 -26.501766 0.000000 0.000000 0.000000 17.661647 20.249358 -2.503587 -58.946623 5.075020 23.502560 77.527585 2.847397 0.754607 24.084062 -3.220976 1.030429 -5.094719 -1.562111 -25.079686 0.000000 0.000000 0.000000 14.714049 19.587980 -1.407882 -37.656926 -5.666599 -4.073359 44.403917 -0.586251 -1.960752 -16.929447 -2.595055 12.927856 -1.871124 8.606538 -15.724185 0.000000 0.000000 0.000000 18.111908 17.842158 -1.174505 0.873421 -5.101807 -0.578705 1.703314 -7.455422 -2.430020 -0.031667 0.070130 -0.098716 0.000000 0.000000 0.000000 0.581391 -4.486711 -1.184556 28.012281 11.058033 7.300645 -5.037110 47.155322 0.330620 0.000000 0.000000 0.000000 1.098596 -6.467341 -2.198916 8.217449 -8.838296 13.403885 5.596172 -5.604703 5.728854 -55.591494 -5.505909 15.770567 -92.184645 -84.134789 -101.726563 0.000000 0.000000 0.000000 0.615811 -5.581674 -0.901063 -5.093716 -2.939016 -6.557417 9.130111 2.477724 1.122504 -60.757039 10.967729 4.648571 -89.208008 73.461458 98.880130 0.000000 0.000000 0.000000 
11.692558 95.561432 -26.455044 0.000000 0.000000 0.000000 17.704530 17.683452 -0.608293 -61.553112 8.577537 19.743606 73.760722 2.660132 3.338022 20.800226 -5.981588 -1.019254 -4.970470 -1.202756 -23.102572 0.000000 0.000000 0.000000 15.450783 17.728161 0.184883 -34.691767 -5.728008 -4.214080 41.691960 1.112773 -2.146472 -19.277668 -2.634728 12.403943 -7.198801 10.276953 -14.447571 0.000000 0.000000 0.000000 17.605769 16.692193 -0.743586 1.368973 -5.068098 -2.500890 1.550890 -7.118312 -2.106876 0.018958 -0.013923 0.002690 0.000000 0.000000 0.000000 0.279748 -4.092289 -1.018021 28.463335 11.424073 5.065165 -8.201132 47.846797 1.163585 0.000000 0.000000 0.000000 0.760547 -6.158633 -2.613191 7.730468 -6.757259 8.734430 5.963810 -7.675674 5.315142 -50.919228 -2.214049 14.782450 -85.805788 -85.779185 -95.348621 0.000000 0.000000 0.000000 0.940209 -4.993956 -0.860455 -5.727106 -3.578420 -9.073313 12.537861 6.237358 3.653706 -55.418700 8.989099 7.867108 -81.458892 73.946736 89.824125 0.000000 0.000000 0.000000 
11.012359 95.337776 -26.191906 0.000000 0.000000 0.000000 17.826474 12.832440 0.950317 -62.384441 12.965682 17.018909 66.310844 0.823927 6.124959 15.147140 -9.567124 -4.030787 0.233824 -1.943614 -17.037535 0.000000 0.000000 0.000000 16.970017 14.949158 0.801234 -30.201061 -3.393831 -2.892730 38.146832 3.074698 -2.467613 -20.587879 -3.831899 13.073748 -11.668028 11.246237 -13.319502 0.000000 0.000000 0.000000 16.330876 15.443980 -0.728855 0.376198 -4.977095 -4.689934 1.737958 -6.269078 -0.777493 0.027500 0.061256 0.112834 0.000000 0.000000 0.000000 -0.312018 -3.159974 -0.050718 28.549877 11.825362 1.554052 -9.456272 48.210525 0.307285 0.000000 0.000000 0.000000 0.702783 -5.206771 -2.119582 7.141986 -5.052321 0.617121 5.932781 -10.102756 4.189443 -43.591657 1.744307 8.849220 -99.760889 -87.953876 -108.739159 0.000000 0.000000 0.000000 1.685803 -3.768505 -0.121231 -6.205331 -5.664289 -8.034495 15.535387 10.900273 7.463263 -47.740881 6.674507 13.329919 -91.473513 75.709710 99.285351 0.000000 0.000000 0.000000 
10.321493 94.097397 -26.077847 0.000000 0.000000 0.000000 17.572919 6.925803 1.503366 -61.726872 17.195182 15.225393 58.021733 -1.264148 8.481020 7.365605 -12.501902 -6.167258 5.117517 -2.128976 -8.692026 0.000000 0.000000 0.000000 17.318202 11.645529 0.279415 -25.488002 0.232482 -1.014946 36.038219 3.852105 -2.563720 -20.950833 -6.782450 13.763711 -9.411225 10.951775 -12.348226 0.000000 0.000000 0.000000 14.343906 14.076226 -1.313104 -1.484538 -4.624651 -6.508541 2.288793 -4.889930 1.153535 0.027480 0.126424 0.152615 0.000000 0.000000 0.000000 -1.111728 -1.694893 1.416148 28.094532 12.340046 -3.102707 -8.409679 48.007166 -2.324011 0.000000 0.000000 0.000000 0.944526 -3.616504 -0.893395 6.620882 -3.865712 -9.123310 5.442553 -11.471088 3.799968 -34.258689 3.996009 -0.486992 -1.778041 -89.114858 -9.741309 0.000000 0.000000 0.000000 2.731601 -1.904546 1.060192 -6.369082 -8.988742 -4.110772 17.909388 13.288265 11.779179 -38.875118 4.867454 18.874191 -108.084322 77.143346 115.900756 0.000000 0.000000 0.000000 
